<svg id="f2d3aa74-e8cc-43a7-887a-e813aae76683" data-name="Layer 1" xmlns="http://www.w3.org/2000/svg" width="865.76" height="682.89" viewBox="0 0 865.76 682.89"><path d="M97.93,291.46s1,.79-2.11,66.85c0,0-1.58,8.42,21.05,10.79,0,0,80.54,7.37,97.12-12.64,0,0-7.37-53.69-6.05-70.53,0,0,9.25,15.65,14.54,22.8l26.25-22.8-21.31-49a137,137,0,0,0-15.13-29.77,58.67,58.67,0,0,0-20.78-18.82c-47.41-25.53-93.72,1.49-93.72,1.49a41,41,0,0,0-17.61,16.27c-7.44,12.78-20.75,42.27-32.69,90.9Z" fill="#0071f2"/><path d="M130.53,232.15a14.88,14.88,0,0,0-12.08,4.18L52.09,291.22a17.18,17.18,0,0,0-5.53,18.6,16.48,16.48,0,0,0,1.9,3.9c5.6,8.51,17.48,9.86,25.31,3.34.39-.32.78-.67,1.17-1,0,0,39.94-36.5,55.59-49.83,0,0,12.84-8.77,13.54-18.6a7.48,7.48,0,0,1-10.93.27,13.27,13.27,0,0,1-3.9-6.35C128.46,238.75,128.05,234.86,130.53,232.15Z" fill="#0071f2"/><path d="M130.53,232.15a14.88,14.88,0,0,0-12.08,4.18L52.09,291.22a17.18,17.18,0,0,0-5.53,18.6,16.48,16.48,0,0,0,1.9,3.9c5.6,8.51,17.48,9.86,25.31,3.34.39-.32.78-.67,1.17-1,0,0,39.94-36.5,55.59-49.83,0,0,12.84-8.77,13.54-18.6a7.48,7.48,0,0,1-10.93.27,13.27,13.27,0,0,1-3.9-6.35C128.46,238.75,128.05,234.86,130.53,232.15Z" opacity="0.2"/><path d="M131.29,229.86l8.22-15.78a10,10,0,0,1,8.16-6.06s11.58-4.84,21.87-.47a3.94,3.94,0,0,1,2.14,2,2.07,2.07,0,0,1,0,1.89,1.92,1.92,0,0,1-1.94.89c-2.82-.36-11.64-1.38-13.7-.06,0,0,4,0,4,5.08,0,0,4,2.47.7,6.85,0,0,6.73,8.45-4.54,15a16.35,16.35,0,0,1-5.31,1.88,7.45,7.45,0,0,0-4,2.14,6.52,6.52,0,0,0-1.42,2.56,5.81,5.81,0,0,1-4.51,3.56,9.55,9.55,0,0,1-9.88-4.14,13.44,13.44,0,0,1-2.42-8S127.87,234.16,131.29,229.86Z" fill="#f9b499"/><path d="M148.11,369.6c52.79.79,65.88-14,65.88-14,5.21,8.27,4.16,19.58,4.16,19.58C161.76,407,92.81,379.41,92.81,379.41s.28-12.38,3.35-19.87C96.16,359.54,97.14,369.6,148.11,369.6Z" fill="#2f2e41"/><path d="M130.91,151.26s1.23,27.73,0,29.13c0,0-6.84,16.84,14.74,19.48,0,0,8.36.75,15.06-2.11a13.07,13.07,0,0,0,7.66-14,55.27,55.27,0,0,0-2.19-9.38Z" fill="#f9b499"/><path d="M193.2,140.49s14.39-6.07,14.39-25.72c0,0,.15-9.72,4.65-15a19.66,19.66,0,0,0,2.38-3.34c2.53-4.66,7-15.39.28-24.25-.25-.33-.49-.66-.73-1-1.46-2.11-9.16-11.53-25.6-3.45-.74.36-1.45.76-2.17,1.16-1.94,1.08-9.43,4.6-16.54-1,0,0-26.44-20.75-42-.4a28.06,28.06,0,0,0-2.67,4.22c-.94,1.84-4.45,7.1-15.14,11.09,0,0-13.33,4.92-3.16,26,0,0,13.24,40.4,24.25,47.93l-.21-5.47-1-4s-12.62-5.75-7-21.69c0,0,3.49-9.46,10.86-3.93,0,0,6.05,8.41,2.81,21.76l3.86.35s1.55-29,17.77-31.78c0,0,21.66-4.19,31.18-13.14C189.34,98.8,202.15,115.07,193.2,140.49Z" fill="#2f2e41"/><path d="M188.34,69.52s18.94-7.8,25,7.48a20.65,20.65,0,0,1,1.34,5.85,38.91,38.91,0,0,1-.29,9.9s2.1-1.33,2.53-7.8A18.82,18.82,0,0,0,210,68.86C205.5,65.28,197.81,63.21,188.34,69.52Z" fill="#fff"/><path d="M127.77,70.11s13.38-16.43,36.62-3c0,0-9.15-8.92-21.71-7.4C142.68,59.66,132.35,61.07,127.77,70.11Z" fill="#fff"/><path d="M106.35,103.71S99.86,88.62,112,83.53C112,83.53,105.12,89.33,106.35,103.71Z" fill="#fff"/><path d="M178.74,216.11l6.18-17.17a4.92,4.92,0,0,1,1.76-2.4,4.23,4.23,0,0,1,3.43-.69c.68.16,1.35.32,2,.41L204,197.87a4,4,0,0,1,2.4,1.16c1,1.05,1.8,3.08.55,6.9L203,218.65Z" fill="#2f2e41"/><path d="M123.45,180.32s-3.76,25.05,24.66,25.4,24.26-25,24.26-25l-4.78-1.18s7.33,20.66-19.66,20.44c0,0-23.86.2-16.67-21.2Z" opacity="0.2"/><path d="M215.49,236s-6.18-11.64-5.31-17.26c0,0,1.06-12.81-3-14l-4,12.29s-11.77-4-24.12-1.9c-.4.07-.81.12-1.23.16a2.16,2.16,0,0,0-2.19,2.44s-.88,2.52,3.68,2.66h-2.71a2.55,2.55,0,0,0-2.55,2.55h0a2.54,2.54,0,0,0,2.5,2.55l6.84.12a.68.68,0,0,1,.66.68h0a.67.67,0,0,1-.64.67l-8.25.38a2.69,2.69,0,0,0-2.56,2.69h0a2.69,2.69,0,0,0,2.69,2.69h14.87a.59.59,0,0,1,.6.59h0a.59.59,0,0,1-.6.59H176a2.11,2.11,0,0,0-2.11,2.11h0A2.1,2.1,0,0,0,176,238h16a.58.58,0,0,1,.51.29c.64,1.07,4.23,4.43,5.22,5.79C197.71,244.1,209.74,251.56,215.49,236Z" fill="#f9b499"/><path d="M195.28,242.7s8.2,6.42,16.17-.73a10.09,10.09,0,0,0,3.26-8.26v-.06l36.66,56.82s8.7,15.28,1.9,25.61A15.19,15.19,0,0,1,243,322.52c-5.91,1-15.26-.31-21.36-15.2Z" fill="#0071f2"/><path d="M195.28,242.7s8.2,6.42,16.17-.73a10.09,10.09,0,0,0,3.26-8.26v-.06l36.66,56.82s8.7,15.28,1.9,25.61A15.19,15.19,0,0,1,243,322.52c-5.91,1-15.26-.31-21.36-15.2Z" opacity="0.2"/><path d="M760.34,430.35c-3.66-4.18-27.53-13.91-27.53-13.91-26.66-10.39-50-.18-60.17,5.86-3.26,1.94-6.64,3.66-10.06,5.29-13.63,6.51-18.72,22-18.72,22-4.18-2.88,2.62-15.95,2.62-15.95a14,14,0,0,0,2.3-7.51,18.47,18.47,0,0,0-3.33-11.22c-7.48-10.67-.85-21.58,1.7-25.08a28.91,28.91,0,0,0,2.76-4.76c4.21-9.94-.82-16.15-.82-16.15C636,350.84,641,339,646.49,332.72a23.11,23.11,0,0,1,9.58-6.35c3.07-1.11,7.88-3.61,9.91-8.78,0,0,7.88-21.18,24.69-23.51.54-.07,1.08-.15,1.61-.25,5.58-1.11,42.12-7.07,55.84,23.26a27.71,27.71,0,0,1,1.9,6.06c.79,4,2.3,11.64,3.67,19.46,0,0,2.37,12.67,22,16.27a40.4,40.4,0,0,1,10.22,3.23C792.42,365.27,800,371.34,797,382c0,0-8.38,11.65,8.3,25.95A35.71,35.71,0,0,1,817.09,427c1.5,6.6,1.49,14.53-3.16,22.06-.23.36-.44.73-.64,1.11-1,2-7.6,11.15-32,21.52C781.3,471.69,771.06,440.28,760.34,430.35Z" fill="#2f2e41"/><path d="M646.49,332.72a30.84,30.84,0,0,0-3.53,3.79,26.46,26.46,0,0,0-2.82,4.29,18.26,18.26,0,0,0-2.23,9.75,19.29,19.29,0,0,0,3.42,9.43,40.36,40.36,0,0,0,6.87,7.69c-.69-.52-1.39-1.05-2.07-1.58l-2-1.72c-.61-.63-1.24-1.24-1.82-1.9s-1.16-1.32-1.65-2.05l-.76-1.08-.67-1.14a8.78,8.78,0,0,1-.61-1.18,13.18,13.18,0,0,1-.55-1.21,17.19,17.19,0,0,1-1.19-5.19,17.79,17.79,0,0,1,2.56-10.19A25.29,25.29,0,0,1,646.49,332.72Z" fill="#2f2e41"/><path d="M644.2,394.87a16.43,16.43,0,0,0-3.57,4,13.14,13.14,0,0,0-2,4.84,12.18,12.18,0,0,0,.13,5.17l.14.64c.06.21.14.41.2.62l.43,1.24a15,15,0,0,0,1.19,2.33,22.09,22.09,0,0,0,1.51,2.16,28.87,28.87,0,0,1,4,7.13,17.93,17.93,0,0,1,1.17,5.35,11.61,11.61,0,0,1-1,5.32,12.46,12.46,0,0,0,.48-5.28,17.73,17.73,0,0,0-1.4-5.1A30.13,30.13,0,0,0,643,418.6c-.48-.74-1-1.46-1.54-2.16a22.65,22.65,0,0,1-1.6-2.24,15.91,15.91,0,0,1-2-5.15,12.15,12.15,0,0,1,0-5.53A14.38,14.38,0,0,1,644.2,394.87Z" fill="#2f2e41"/><path d="M766.7,356.2a68.25,68.25,0,0,1,12.89,1.46A43,43,0,0,1,791.88,362a19.51,19.51,0,0,1,5.14,4.15,11.4,11.4,0,0,1,2.74,6,13.78,13.78,0,0,1-.89,6.5,26,26,0,0,1-3.09,5.71,28.94,28.94,0,0,0,2.62-5.86,13.18,13.18,0,0,0,.6-6.24,11.28,11.28,0,0,0-2.68-5.54,18.73,18.73,0,0,0-4.94-3.88,45.46,45.46,0,0,0-12-4.48c-2.08-.52-4.19-.95-6.31-1.3S768.85,356.43,766.7,356.2Z" fill="#2f2e41"/><path d="M811.19,414.26a25,25,0,0,1,6.9,7.63,26,26,0,0,1,3.16,9.88A33.27,33.27,0,0,1,817,451.88a36.5,36.5,0,0,1-6.49,8.14,39.55,39.55,0,0,1-8.49,6,43.67,43.67,0,0,1-9.67,3.73,47.14,47.14,0,0,1-10.23,1.36,47.51,47.51,0,0,0,19.53-5.76,42.28,42.28,0,0,0,8.23-6,35.76,35.76,0,0,0,6.26-8,33.72,33.72,0,0,0,3.69-9.43,33.33,33.33,0,0,0,.65-10.11A25.33,25.33,0,0,0,811.19,414.26Z" fill="#2f2e41"/><path d="M683.61,314a58.93,58.93,0,0,1,13.32-3.05,53.86,53.86,0,0,1,13.72.09,43.38,43.38,0,0,1,6.73,1.53,41.58,41.58,0,0,1,6.4,2.67,37.19,37.19,0,0,1,10.74,8.71,43,43,0,0,1,10,25.5c.12,2.35.11,4.55.34,6.8a52.31,52.31,0,0,0,1,6.62,29.84,29.84,0,0,0,2.07,6.28,15,15,0,0,0,3.74,5.13,10.06,10.06,0,0,0,5.65,2.38,13.82,13.82,0,0,0,1.58.07c.53,0,1.06-.05,1.6-.14l.82-.12.45-.07.44-.05c.59-.06,1.18-.1,1.76-.13a35.69,35.69,0,0,1,7,.35,27.66,27.66,0,0,1,3.45.77,15.52,15.52,0,0,1,3.32,1.44,15.41,15.41,0,0,1,7.64,11.69,14.58,14.58,0,0,1-.94,7.1c-.25.54-.5,1.16-.75,1.62s-.48,1-.68,1.48a12,12,0,0,0-.8,3.1,29.22,29.22,0,0,0,1.91,13.07,40.52,40.52,0,0,0,2.89,6.06A39,39,0,0,1,790.1,429a30.19,30.19,0,0,1,2.21,13.53A21.58,21.58,0,0,1,787,455a21.92,21.92,0,0,0,4.74-12.49,29.35,29.35,0,0,0-2.59-13.11,37.86,37.86,0,0,0-3.2-5.94,43.11,43.11,0,0,1-3.1-6.19,30.5,30.5,0,0,1-2.26-13.68,14.11,14.11,0,0,1,.83-3.52c.21-.56.45-1.1.71-1.64s.43-1,.65-1.49a12.88,12.88,0,0,0,.79-6.3,13.65,13.65,0,0,0-9.76-11.55,22.89,22.89,0,0,0-3.21-.69,33.28,33.28,0,0,0-6.62-.29c-.55,0-1.11.07-1.65.13l-.4,0-.39.06-.88.14a17.7,17.7,0,0,1-1.8.16,15.89,15.89,0,0,1-1.82-.06,11.91,11.91,0,0,1-6.75-2.81,16.93,16.93,0,0,1-4.22-5.83,32.23,32.23,0,0,1-2.16-6.69,53.37,53.37,0,0,1-1-6.87c-.21-2.29-.2-4.66-.3-6.85a42.26,42.26,0,0,0-9.31-24.63,35.81,35.81,0,0,0-10.18-8.59,40,40,0,0,0-6.14-2.7A44.25,44.25,0,0,0,710.5,312a53.66,53.66,0,0,0-13.52-.53,67.1,67.1,0,0,0-6.75.91A54.14,54.14,0,0,0,683.61,314Z" fill="#fff"/><path d="M640.78,454.41,605.94,529.8s-9.06,26.24,11.15,27.29c0,0,12.54,7.35,39-45.83,0,0,7.32,28-4.18,56,0,0-6.28,11.9-1.05,15.4,0,0,33.11,26.24,94.79,10.84,0,0,15.33-3.84,13.24-12.59,0,0-5.92-31.49-4.88-39.54,0,0,39.73,25.89,45.3,3.85,0,0,3.32-9.8-7.23-39.89,0,0-9.75-42.58-27.12-70.1a26.7,26.7,0,0,0-6.86-7.35c-5.18-3.76-15.23-9.55-32.54-14.35a63.72,63.72,0,0,0-53,8.07s-7.7,4-10.06,5.31c0,0-11.88,4-18.72,22.09Z" fill="#0071f2"/><path d="M694.4,505.08s4.9,2.35,8.38-3.13a12.19,12.19,0,0,0,1.52-3.69c.61-2.56,1.5-7.57-.42-9.49a5.7,5.7,0,0,1,6.14,0l74,35.67a31.65,31.65,0,0,1,9.83,7.25c4.49,5,8.61,12.74,3.17,21.82,0,0-8.15,11.61-27.81-1.3-1.47-1-3-1.91-4.49-2.77L707.3,516.93S691.51,509.54,694.4,505.08Z" fill="#0071f2"/><path d="M694.4,505.08s4.9,2.35,8.38-3.13a12.19,12.19,0,0,0,1.52-3.69c.61-2.56,1.5-7.57-.42-9.49a5.7,5.7,0,0,1,6.14,0l74,35.67a31.65,31.65,0,0,1,9.83,7.25c4.49,5,8.61,12.74,3.17,21.82,0,0-8.15,11.61-27.81-1.3-1.47-1-3-1.91-4.49-2.77L707.3,516.93S691.51,509.54,694.4,505.08Z" opacity="0.2"/><path d="M638.08,612s4.33-24.74,11.46-30.79c0,0,12.8,10.93,52.34,15.41,0,0,51.12,1.1,56.89-12.07,0,0,8.8,10.78,9.15,30.78,0,0-43,20.36-98.61,8.43A149.35,149.35,0,0,1,638.08,612Z" fill="#2f2e41"/><path d="M691.24,407.79s-1.08,4.08-1.89,8.72a15.53,15.53,0,0,0,12.71,18.05,35.27,35.27,0,0,0,10.24-.1,12.88,12.88,0,0,0,1.5-.5,17,17,0,0,0,10.63-16.88l-1.78-30.17Z" fill="#f9b499"/><path d="M668.87,471.11c-.92-1.19-2.43-.66-3.72.17a10.75,10.75,0,0,0-3.16,3.28l-5.49,8.68c-9.74.79-13.89-10-13.89-10l11.13-21.72a25.27,25.27,0,0,1,14.8-12.69A18.76,18.76,0,0,1,686,441.67a2,2,0,0,1-1,3.57,14.44,14.44,0,0,1-5.47-1,9.67,9.67,0,0,0-3-.51,4.27,4.27,0,0,0-3.49,1.32s4.3.79,2.9,5c0,0,3.68,1.23,1.58,4.91Z" fill="#f9b499"/><path d="M670.19,474.16c-3.69.27-2.5,5.92-2.5,5.92s-.13,6.37,3.29,7.79c0,0,.39,6.16,3.16,6.29,0,0-.93,5.8,7.37,5.4,0,0,10.74.38,12.89,5.52,0,0,5.79,2.83,9.15-4.57,0,0,3.09-7.53.33-11.74,0,0-4.35-.56-4.87-8.11,0,0-1.5-9.81-5-12.63,0,0-1.85-4.19-1.51-7.35a2.79,2.79,0,0,0-1.33-2.79c-.94-.51-2.18-.51-3.33,1.53" fill="#f9b499"/><path d="M684.38,415.46s-3.93,26.72,24.76,24.75c0,0,21.54-1.45,22.09-25.07l-7-2s1.87,11.22-4.66,17.06a9.2,9.2,0,0,0-.77.76c-1.13,1.25-5.87,5-15.54,3.72a16.91,16.91,0,0,1-10.31-5.2c-2.88-3.17-5.22-8.24-3.07-15.87A31.18,31.18,0,0,0,684.38,415.46Z" opacity="0.2"/><path d="M645.45,468.24s-2.49-1.36-4.67,2.87l-32.71,56a30.45,30.45,0,0,0-4.27,15.26c0,5.72,1.7,12,8.52,14.07,0,0,7.38,4.23,16.07-3a23.3,23.3,0,0,0,6.78-9.64l23.33-63.7a20.22,20.22,0,0,1-8.22-1.69S641.24,475.61,645.45,468.24Z" fill="#0071f2"/><path d="M645.45,468.24s-2.49-1.36-4.67,2.87l-32.71,56a30.45,30.45,0,0,0-4.27,15.26c0,5.72,1.7,12,8.52,14.07,0,0,7.38,4.23,16.07-3a23.3,23.3,0,0,0,6.78-9.64l23.33-63.7a20.22,20.22,0,0,1-8.22-1.69S641.24,475.61,645.45,468.24Z" opacity="0.2"/><path d="M669.84,475.17l-5.13-12.46s-1.36-6.84,7.76-7.72l9.12-1.05s6.5-1.33,6.32,6.62l1.56,13.83a4.21,4.21,0,0,1-2.82,4.47C681.33,480.67,671.13,483,669.84,475.17Z" fill="#2f2e41"/><path d="M550.71,589.34H320.34A18.34,18.34,0,0,1,302,571V123.33a20.55,20.55,0,0,1,20.55-20.55h226a20.56,20.56,0,0,1,20.56,20.55V571A18.35,18.35,0,0,1,550.71,589.34Z" fill="#d1d3d4"/><path d="M541.62,577.75H328.9a14.45,14.45,0,0,1-14.44-14.45V140.06H556.07V563.3A14.45,14.45,0,0,1,541.62,577.75Z" fill="#fff" stroke="#bcbec0" stroke-miterlimit="10"/><path d="M293.31,97.22a.91.91,0,0,1-.65-.27L278.2,82.49a.92.92,0,0,1,0-1.3c.67-2.13,15.18,14.5,15.76,14.46A.92.92,0,0,1,293.31,97.22Z" fill="#d1d3d4"/><path d="M284.6,119.32c-.47-.45-22.32,1.07-21.37-.92-1-2,21-.48,21.37-.93A.93.93,0,0,1,284.6,119.32Z" fill="#d1d3d4"/><path d="M315.6,89.38c-2,1-.48-21-.92-21.37a.92.92,0,0,1,.92-.92c2-1,.48,21,.92,21.37A.92.92,0,0,1,315.6,89.38Z" fill="#d1d3d4"/><path d="M453.92,125.05H417a.92.92,0,0,1-.92-.92c.26-2.27,36.54-.3,37.81-.93A.93.93,0,0,1,453.92,125.05Z" fill="#fff"/><path d="M363.68,187.44c-.07,15.14-23.1,15.14-23.17,0S363.61,172.3,363.68,187.44Z" fill="#d1d3d4"/><path d="M531.24,277.63c-.07,15.14-23.09,15.14-23.16,0S531.17,262.48,531.24,277.63Z" fill="#d1d3d4"/><path d="M522.73,175.86h-127a8.51,8.51,0,0,0-8.51,8.51H371l16.15,11.17V226a8.51,8.51,0,0,0,8.51,8.51h127a8.51,8.51,0,0,0,8.51-8.51V184.37A8.51,8.51,0,0,0,522.73,175.86Z" fill="#d1d3d4"/><rect x="404.73" y="192.48" width="110.54" height="0.61" fill="#fff"/><rect x="404.73" y="205.29" width="110.54" height="0.61" fill="#fff"/><rect x="404.73" y="218.1" width="46.32" height="0.61" fill="#fff"/><path d="M363.68,368.43c-.07,15.14-23.1,15.14-23.17,0S363.61,353.28,363.68,368.43Z" fill="#d1d3d4"/><path d="M522.73,356.85h-127a8.51,8.51,0,0,0-8.51,8.51H371l16.15,11.17V407a8.51,8.51,0,0,0,8.51,8.51h127a8.51,8.51,0,0,0,8.51-8.51V365.36A8.51,8.51,0,0,0,522.73,356.85Z" fill="#d1d3d4"/><rect x="404.73" y="373.47" width="110.54" height="0.61" fill="#fff"/><rect x="404.73" y="386.28" width="110.54" height="0.61" fill="#fff"/><rect x="404.73" y="399.09" width="46.32" height="0.61" fill="#fff"/><path d="M349,267.27h127a8.51,8.51,0,0,1,8.51,8.51h16.14L484.57,287v30.5a8.51,8.51,0,0,1-8.51,8.5H349a8.51,8.51,0,0,1-8.51-8.5V275.78A8.51,8.51,0,0,1,349,267.27Z" fill="#d1d3d4"/><rect x="356.39" y="282.67" width="110.54" height="0.61" fill="#fff"/><rect x="356.39" y="295.48" width="110.54" height="0.61" fill="#fff"/><rect x="420.61" y="307.94" width="46.32" height="0.61" fill="#fff"/><path d="M531.51,458c-.07,15.14-23.1,15.14-23.16,0S531.44,442.86,531.51,458Z" fill="#d1d3d4"/><path d="M349.29,447.65h127a8.51,8.51,0,0,1,8.51,8.51H501l-16.15,11.17v30.5a8.51,8.51,0,0,1-8.51,8.51h-127a8.51,8.51,0,0,1-8.51-8.51V456.16A8.51,8.51,0,0,1,349.29,447.65Z" fill="#d1d3d4"/><rect x="356.66" y="463.04" width="110.54" height="0.61" fill="#fff"/><rect x="356.66" y="475.85" width="110.54" height="0.61" fill="#fff"/><rect x="420.88" y="488.31" width="46.32" height="0.61" fill="#fff"/><path d="M352.36,531.52c.06,4.55-7.09,4.55-7,0S352.43,527,352.36,531.52Z" fill="#d1d3d4"/><path d="M364.82,531.52c.06,4.55-7.09,4.55-7,0S364.88,527,364.82,531.52Z" fill="#d1d3d4"/><path d="M377.45,531.52c.07,4.55-7.09,4.55-7,0S377.52,527,377.45,531.52Z" fill="#d1d3d4"/><path d="M690.78,409.64l-1.43,6.87s13.17.17,21.74-9.83C711.09,406.68,701.61,413.11,690.78,409.64Z" fill="#f7a48b"/><path d="M664.4,339s-14.39,21.18,8.07,55.86c0,0,16.14,22.75,34,14.33,0,0,12.63-3.43,19.3-27.33,0,0,9.29-3,8.86-17a12.33,12.33,0,0,0-4.47-9.31c-3.22-2.57-7.78-3.27-11.41,7.63,0,0-1.19-7-16.91-8.78C701.88,354.45,676.12,350.15,664.4,339Z" fill="#f9b499"/><path d="M167.59,179.52l-1.41-5.1s-11.07,5.61-23-3.66C143.19,170.76,148.75,182,167.59,179.52Z" fill="#f7a48b"/><path d="M194.43,136.17C190,153.69,181.21,164.4,175.3,169.6A27.32,27.32,0,0,1,162.46,176c-24.71,4.67-32.58-28.78-32.58-28.78s-13-5.62-6.51-23.16c0,0,3.68-7.55,10.35-2.46,0,0,6.67,7.37,2.81,21.76l3.86.35s.76-25.69,16.07-31.28a15.72,15.72,0,0,1,2.42-.65c4.05-.83,21.08-4.68,30.46-13C189.34,98.8,200.39,112.66,194.43,136.17Z" fill="#f9b499"/></svg>